<svg height="480pt" viewBox="0 -31 480 479" width="480pt" xmlns="http://www.w3.org/2000/svg"><path d="m472 96.574219h-8.910156c-2.625-12.800781-11.347656-23.507813-23.355469-28.664063-2.527344-22.34375-23.007813-40.265625-48.894531-42.984375-6.398438-15.59375-22.015625-25.386719-38.839844-24.351562-16.691406-1.003907-32.210938 8.609375-38.742188 24-26.648437-.457031-49.257812 17.601562-49.257812 40v.550781c-18.144531 1.65625-33.515625 14.0625-38.960938 31.449219h-18.015624c-4.519532-18.542969-24.429688-32.535157-48.09375-32-5.050782-18.472657-27.371094-32-54.929688-32-28.59375 0-51.542969 14.566406-55.425781 34.113281-15.09375 3.59375-27.109375 15-31.484375 29.886719h-9.089844c-4.417969 0-8 3.582031-8 8v128c0 1.976562.734375 3.882812 2.054688 5.351562l29.945312 33.273438v33.375h-32v16h16.886719c-10.796875 10.507812-16.886719 24.933593-16.886719 40 0 15.066406 6.089844 29.492187 16.886719 40h-16.886719v16h216v-16h-24.886719c10.796875-10.507813 16.886719-24.933594 16.886719-40 0-15.066407-6.089844-29.492188-16.886719-40h97.773438c-10.796875 10.507812-16.886719 24.933593-16.886719 40 0 15.066406 6.089844 29.492187 16.886719 40h-24.886719v16h216v-16h-16.886719c10.796875-10.507813 16.886719-24.933594 16.886719-40 0-15.066407-6.089844-29.492188-16.886719-40h16.886719v-16h-32v-33.375l29.945312-33.273438c1.320313-1.46875 2.054688-3.375 2.054688-5.351562v-128c0-4.417969-3.582031-8-8-8zm-414.679688-15.464844c4.027344-.808594 6.863282-4.433594 6.679688-8.535156 0-13.007813 18.320312-24 40-24s40 10.992187 40 23.457031c0 .285156-.070312.902344-.070312 1.191406-.003907 2.347656 1.03125 4.578125 2.820312 6.097656 1.789062 1.519532 4.15625 2.179688 6.472656 1.796876 2.242188-.363282 4.507813-.546876 6.777344-.542969 12.257812-.734375 23.898438 5.441406 30.167969 16h-156.3125c4.890625-8.617188 13.617187-14.367188 23.464843-15.464844zm72.152344 287.464844h-16.671875c-1.078125-5.277344-1.078125-10.722657 0-16h16.664063c-1.964844 5.152343-1.964844 10.847656 0 16zm-25.472656-36.695313c-2.46875-4.132812-5.453125-7.929687-8.886719-11.304687h17.773438c-3.433594 3.375-6.417969 7.171875-8.886719 11.304687zm-25.472656 20.695313h16.671875c1.078125 5.277343 1.078125 10.722656 0 16h-16.671875c1.964844-5.152344 1.964844-10.847657 0-16zm-30.527344-87.511719v-8.488281h48v48h-12.441406zm14.039062 39.511719h-14.039062v-15.601563zm33.960938-144v32h-48v-32zm-48-16v-32h48v32zm48 64v32h-48v-32zm16 96v-192h32v168h16v-168h16v192zm-96-75.070313v-116.929687h16v134.703125zm40 171.070313c-18.835938.097656-35.1875-12.960938-39.261719-31.347657-4.074219-18.390624 5.238281-37.132812 22.351563-44.996093 17.117187-7.867188 37.398437-2.726563 48.703125 12.34375h-31.792969c-13.253906 0-24 10.746093-24 24 0 13.253906 10.746094 24 24 24h31.792969c-7.492188 10.035156-19.269531 15.964843-31.792969 16zm8-40c0 4.417969-3.582031 8-8 8s-8-3.582031-8-8 3.582031-8 8-8 8 3.582031 8 8zm31.113281 40c3.433594-3.371094 6.417969-7.171875 8.886719-11.304688 2.46875 4.132813 5.453125 7.933594 8.886719 11.304688zm96.886719-40c.054688 17.195312-10.917969 32.488281-27.226562 37.9375-16.304688 5.453125-34.269532-.167969-44.566407-13.9375h31.792969c13.253906 0 24-10.746094 24-24 0-13.253907-10.746094-24-24-24h-31.792969c10.296875-13.769531 28.261719-19.390625 44.566407-13.9375 16.308593 5.449219 27.28125 20.742187 27.226562 37.9375zm-48 0c0-4.417969 3.582031-8 8-8s8 3.582031 8 8-3.582031 8-8 8-8-3.582031-8-8zm127.855469-280c.222656 0 1.121093.097656 1.335937.105469 2.597656.035156 5.0625-1.148438 6.65625-3.203126 1.566406-2.089843 2.011719-4.8125 1.191406-7.292968-.644531-1.804688-.996093-3.695313-1.039062-5.609375 0-13.230469 14.351562-24 32-24 2.273438 0 4.546875.183593 6.792969.550781 2.363281.375 4.769531-.316406 6.574219-1.886719 1.800781-1.582031 2.796874-3.890625 2.710937-6.289062 0-.207031 0-.511719-.070313-.800781.351563-8.484376 11.191407-15.574219 23.992188-15.574219 13.007812 0 24 7.328125 24 16 0 4.417969 3.582031 8 8 8 22.054688 0 40 14.351562 40 31.960937l-.054688.800782c-.15625 3.769531 2.34375 7.136718 6 8.078124 7.726563 1.96875 13.972657 7.652344 16.664063 15.160157h-204.800781c6.230468-10.539063 17.824218-16.714844 30.046875-16zm124.585937 224h-12.441406v-48h48v8.488281zm35.558594-15.601563v15.601563h-14.039062zm-30.527344 79.601563h-16.671875c-1.078125-5.277344-1.078125-10.722657 0-16h16.664063c-1.964844 5.152343-1.964844 10.847656 0 16zm-25.472656-36.695313c-2.46875-4.132812-5.453125-7.929687-8.886719-11.304687h17.773438c-3.433594 3.375-6.417969 7.171875-8.886719 11.304687zm-25.472656 20.695313h16.671875c1.078125 5.277343 1.078125 10.722656 0 16h-16.671875c1.964844-5.152344 1.964844-10.847657 0-16zm33.472656-112v-32h48v32zm0-48v-32h48v32zm0-48v-32h48v32zm-128 160h-64v-192h16v120h16v-120h32zm16 0v-192h16v160h16v-160h24v176h16v-176h24v192zm56 96c-18.835938.097656-35.1875-12.960938-39.261719-31.347657-4.074219-18.390624 5.238281-37.132812 22.351563-44.996093 17.117187-7.867188 37.398437-2.726563 48.703125 12.34375h-31.792969c-13.253906 0-24 10.746093-24 24 0 13.253906 10.746094 24 24 24h31.792969c-7.492188 10.035156-19.269531 15.964843-31.792969 16zm8-40c0 4.417969-3.582031 8-8 8s-8-3.582031-8-8 3.582031-8 8-8 8 3.582031 8 8zm31.113281 40c3.433594-3.371094 6.417969-7.171875 8.886719-11.304688 2.46875 4.132813 5.453125 7.933594 8.886719 11.304688zm96.886719-40c.054688 17.195312-10.917969 32.488281-27.226562 37.9375-16.304688 5.453125-34.269532-.167969-44.566407-13.9375h31.792969c13.253906 0 24-10.746094 24-24 0-13.253907-10.746094-24-24-24h-31.792969c10.296875-13.769531 28.261719-19.390625 44.566407-13.9375 16.308593 5.449219 27.28125 20.742187 27.226562 37.9375zm-48 0c0-4.417969 3.582031-8 8-8s8 3.582031 8 8-3.582031 8-8 8-8-3.582031-8-8zm48-131.070313-16 17.773438v-134.703125h16zm0 0"/><path d="m232 400.574219h16v16h-16zm0 0"/><path d="m88 64.574219h16v16h-16zm0 0"/><path d="m352 48.574219h16v16h-16zm0 0"/><path d="m320 64.574219h16v16h-16zm0 0"/></svg>