<svg id="Слой_2" data-name="Слой 2" xmlns="http://www.w3.org/2000/svg" viewBox="0 0 32.75 32.92"><defs><style>.cls-1,.cls-2{fill:#a6a6a6;}.cls-1{fill-rule:evenodd;}</style></defs><title>facebook</title><path class="cls-1" d="M14.36,17H12.56c-.15,0-.19,0-.19-.19q0-1.2,0-2.41c0-.14,0-.18.18-.18h1.62c.15,0,.21,0,.2-.2,0-.66,0-1.32,0-2A3.87,3.87,0,0,1,14.93,10a3.17,3.17,0,0,1,2.31-1.44,11.14,11.14,0,0,1,2.25,0l.59,0c.08,0,.12,0,.12.12q0,1.16,0,2.32c0,.12-.06.12-.15.12H18.63a3.06,3.06,0,0,0-.46,0,.92.92,0,0,0-.86.94c0,.66,0,1.33,0,2,0,.12.08.11.16.11h2.71c0,.15,0,.29,0,.42q0,1-.1,2.07s0,.07,0,.11-.05.18-.2.18H17.3c0,.08,0,.15,0,.22q0,3.51,0,7s0,.06,0,.09,0,.16-.16.16h-2.6c-.14,0-.18,0-.18-.18,0-1,0-1.93,0-2.89q0-2.13,0-4.26C14.36,17.08,14.36,17,14.36,17Z"/><path class="cls-2" d="M32.14,32.31H.43V4.5A3.9,3.9,0,0,1,4.32.6H32.14ZM1.37,31.37H31.19V1.55H4.32a3,3,0,0,0-3,3Z"/></svg>