<svg id="Слой_2" data-name="Слой 2" xmlns="http://www.w3.org/2000/svg" viewBox="0 0 32.75 32.92"><defs><style>.cls-1{fill:#a6a6a6;}</style></defs><title>instagram</title><path class="cls-1" d="M16.57,10.69c1.88,0,2.1,0,2.85,0a3.9,3.9,0,0,1,1.31.24,2.33,2.33,0,0,1,1.34,1.34,3.9,3.9,0,0,1,.24,1.31c0,.74,0,1,0,2.85s0,2.1,0,2.85a3.9,3.9,0,0,1-.24,1.31,2.33,2.33,0,0,1-1.34,1.34,3.9,3.9,0,0,1-1.31.24c-.74,0-1,0-2.85,0s-2.1,0-2.85,0a3.9,3.9,0,0,1-1.31-.24,2.33,2.33,0,0,1-1.34-1.34,3.9,3.9,0,0,1-.24-1.31c0-.74,0-1,0-2.85s0-2.1,0-2.85a3.9,3.9,0,0,1,.24-1.31A2.33,2.33,0,0,1,12.42,11a3.9,3.9,0,0,1,1.31-.24c.74,0,1,0,2.85,0m0-1.27c-1.91,0-2.15,0-2.9,0A5.17,5.17,0,0,0,12,9.79,3.6,3.6,0,0,0,9.9,11.85a5.17,5.17,0,0,0-.33,1.71c0,.75,0,1,0,2.9s0,2.15,0,2.9a5.17,5.17,0,0,0,.33,1.71A3.6,3.6,0,0,0,12,23.13a5.17,5.17,0,0,0,1.71.33c.75,0,1,0,2.9,0s2.15,0,2.9,0a5.17,5.17,0,0,0,1.71-.33,3.6,3.6,0,0,0,2.06-2.06,5.17,5.17,0,0,0,.33-1.71c0-.75,0-1,0-2.9s0-2.15,0-2.9a5.17,5.17,0,0,0-.33-1.71,3.6,3.6,0,0,0-2.06-2.06,5.17,5.17,0,0,0-1.71-.33c-.75,0-1,0-2.9,0Z"/><path class="cls-1" d="M16.57,12.84a3.62,3.62,0,1,0,3.62,3.62A3.62,3.62,0,0,0,16.57,12.84Zm0,6a2.35,2.35,0,1,1,2.35-2.35A2.35,2.35,0,0,1,16.57,18.81Z"/><circle class="cls-1" cx="20.33" cy="12.7" r="0.84"/><path class="cls-1" d="M32.14,32.31H.43V4.5A3.9,3.9,0,0,1,4.32.6H32.14ZM1.37,31.37H31.19V1.55H4.32a3,3,0,0,0-3,3Z"/></svg>