<svg id="Слой_2" data-name="Слой 2" xmlns="http://www.w3.org/2000/svg" viewBox="0 0 32.75 32.92"><defs><style>.cls-1{fill:#a6a6a6;}</style></defs><title>linkedln</title><rect class="cls-1" x="9.12" y="13.4" width="3.29" height="10.22"/><path class="cls-1" d="M20.45,13.16a3.82,3.82,0,0,0-3.21,1.63v-1.4h-3l.06,10.2h3.23V17.71a2.15,2.15,0,0,1,.13-.79,1.72,1.72,0,0,1,1.64-1.19c1.17,0,1.64.9,1.64,2.21v5.65h3.23V17.54C24.17,14.54,22.58,13.16,20.45,13.16Z"/><circle class="cls-1" cx="10.77" cy="10.34" r="1.89"/><path class="cls-1" d="M32.14,32.31H.43V4.5A3.9,3.9,0,0,1,4.32.6H32.14ZM1.37,31.37H31.19V1.55H4.32a3,3,0,0,0-3,3Z"/></svg>