<svg height="496pt" viewBox="0 0 496 496" width="496pt" xmlns="http://www.w3.org/2000/svg"><path d="m24 176h59.472656l23.457032 39.097656 25.414062-39.097656h67.65625c13.230469 0 24-10.769531 24-24v-128c0-13.230469-10.769531-24-24-24h-176c-13.230469 0-24 10.769531-24 24v128c0 13.230469 10.769531 24 24 24zm-8-152c0-4.40625 3.585938-8 8-8h176c4.414062 0 8 3.59375 8 8v128c0 4.40625-3.585938 8-8 8h-67.65625c-5.441406 0-10.457031 2.71875-13.421875 7.28125l-11.457031 17.621094-10.273438-17.125c-2.871094-4.792969-8.128906-7.777344-13.71875-7.777344h-59.472656c-4.414062 0-8-3.59375-8-8zm0 0"/><path d="m32 32h16v16h-16zm0 0"/><path d="m64 32h128v16h-128zm0 0"/><path d="m32 64h160v16h-160zm0 0"/><path d="m32 96h160v16h-160zm0 0"/><path d="m32 128h160v16h-160zm0 0"/><path d="m406.472656 123.160156c.96875-3.496094 1.527344-7.097656 1.527344-10.710937v-38.554688c0-13.335937-7.023438-25.40625-18.472656-32-11.230469-16.230469-29.625-25.894531-49.414063-25.894531-33.144531 0-60.113281 26.96875-60.113281 60.113281v36.335938c0 3.613281.558594 7.222656 1.527344 10.710937l-89.527344 89.527344v176l-16 16c-4.246094 4.257812-11.769531 4.25-16 0l-68.6875-68.6875c-2.144531-2.136719-3.3125-4.976562-3.3125-8s1.167969-5.863281 3.3125-8l32-32-59.3125-59.3125-50.34375 50.34375c-8.808594 8.800781-13.65625 20.511719-13.65625 32.96875s4.847656 24.167969 13.65625 32.96875l137.375 137.375c8.679688 8.679688 20.695312 13.65625 32.96875 13.65625s24.289062-4.976562 32.96875-13.65625l50.34375-50.34375h228.6875v-219.3125zm-11.160156 196.839844 84.6875-84.6875v169.375zm-147.3125-67.3125v-27.015625c0-11.335937 7.726562-20.96875 18.792969-23.433594l21.992187-4.886719 9.566406 57.417969 21.222657-16.976562 8.019531 12.015625-8.160156 48.945312 24.566406 24.558594 24.566406-24.570312-8.160156-48.941407 8.019531-12.015625 21.222657 16.976563 9.566406-57.417969 21.992187 4.886719c11.066407 2.464843 18.792969 12.105469 18.792969 23.433593v27.015626l-96 96zm176.679688-66.0625-40.679688-9.039062v-12.890626c3.175781-3.085937 5.9375-6.671874 8-10.800781l7.527344-15.046875 77.160156 77.152344-20.6875 20.6875v-11.015625c0-18.894531-12.871094-34.953125-31.320312-39.046875zm-73.246094 106.632812-7.433594 7.429688-7.433594-7.429688 6.210938-37.257812h2.445312zm-19.65625-117.257812h24.453125c4.074219 0 8.027343-.648438 11.777343-1.792969v5.792969l-24 18-24-18v-5.800781c3.746094 1.152343 7.6875 1.800781 11.769532 1.800781zm-21.632813 16.609375 20.792969 15.597656-21.289062 17.03125-5.222657-31.351562zm37.574219 47.390625h-7.4375l-8.167969-12.246094 11.886719-9.507812 11.878906 9.507812zm9.34375-31.800781 20.792969-15.597657 5.730469 1.269532-5.226563 31.351562zm34.9375-95.75c0 3.703125-.871094 7.414062-2.527344 10.734375l-11.785156 23.550781c-4.09375 8.1875-12.3125 13.265625-21.464844 13.265625h-24.453125c-9.152343 0-17.371093-5.078125-21.464843-13.265625l-11.785157-23.550781c-1.648437-3.320313-2.519531-7.03125-2.519531-10.734375v-16.992188c11.710938-1.234375 22.761719-5.503906 32-12.769531 10.976562 8.632812 24.441406 13.3125 38.625 13.3125h25.375zm-96 41.4375c2.0625 4.128906 4.824219 7.714843 8 10.800781v12.886719l-40.679688 9.042969c-18.449218 4.101562-31.320312 20.160156-31.320312 39.046874v11.015626l-20.6875-20.679688 77.160156-77.160156zm44.113281-121.886719c14.78125 0 28.503907 7.34375 36.703125 19.640625l1.710938 2.566406 1.898437.953125c7.132813 3.566406 11.574219 10.742188 11.574219 18.726563v6.113281h-25.375c-12.457031 0-24.167969-4.847656-32.96875-13.65625l-5.65625-5.664062-5.65625 5.664062c-7.222656 7.222656-16.40625 11.726562-26.34375 13.136719v-3.367188c0-24.320312 19.792969-44.113281 44.113281-44.113281zm-132.113281 203.3125 84.6875 84.6875-68.6875 68.6875-16-16zm-107.3125 52.6875-12.6875 12.6875-36.6875-36.6875 12.6875-12.6875zm104.96875 183.03125c-5.703125 5.695312-13.59375 8.96875-21.65625 8.96875s-15.953125-3.273438-21.65625-8.96875l-137.375-137.375c-5.785156-5.785156-8.96875-13.480469-8.96875-21.65625s3.183594-15.871094 8.96875-21.65625l15.03125-15.03125 37.007812 37.007812c-3.222656 4.566407-5.007812 9.976563-5.007812 15.679688 0 7.304688 2.839844 14.160156 8 19.3125l68.6875 68.6875c9.167969 9.183594 24.425781 10.160156 34.960938 2.960938l37.039062 37.039062zm26.34375-26.34375-36.6875-36.6875 12.6875-12.6875 36.6875 36.6875zm19.3125-28.6875-16-16 68.6875-68.6875 40 40 40-40 84.6875 84.6875zm0 0"/></svg>