<?xml version="1.0" encoding="iso-8859-1"?>
<!-- Generator: Adobe Illustrator 21.0.0, SVG Export Plug-In . SVG Version: 6.00 Build 0)  -->
<svg xmlns="http://www.w3.org/2000/svg" xmlns:xlink="http://www.w3.org/1999/xlink" version="1.1" id="Capa_1" x="0px" y="0px" viewBox="0 0 511.992 511.992" style="enable-background:new 0 0 511.992 511.992;" xml:space="preserve" width="512" height="512">
<g>
	<path d="M470.007,61.265c-25.919-23.621-59.473-35.476-94.506-33.376l1.794,29.946c26.867-1.608,52.621,7.483,72.505,25.604   s31.322,42.917,32.208,69.823l29.983-0.987C510.837,117.208,495.927,84.886,470.007,61.265z"/>
	<path d="M432.94,101.941c-14.602-13.309-33.525-19.983-53.261-18.802l1.794,29.946c11.596-0.7,22.693,3.222,31.26,11.029   c8.566,7.807,13.494,18.498,13.876,30.104l29.983-0.987C455.942,133.463,447.542,115.247,432.94,101.941z"/>
	<path d="M351.407,117.556c-38.414-16.896-88.919-26.201-142.215-26.201c-53.935,0-104.876,9.499-143.438,26.748   C23.352,137.068,0,163.743,0,193.214v71.772h48.758L6.718,397.07v87.271h404.946V397.07l-42.04-132.084h48.758v-73.33l-0.012-0.592   C417.229,162.154,393.447,136.049,351.407,117.556z M381.664,401.729v52.611H36.718v-52.611l43.523-136.744h62.796v-55.792   c20.78-3.897,42.772-5.869,65.548-5.869c23.245,0,45.646,2.047,66.76,6.092v55.568h62.796L381.664,401.729z M388.382,234.986   h-83.037v-49.642l-11.61-2.694c-26.667-6.188-55.315-9.325-85.15-9.325c-29.326,0-57.547,3.041-83.879,9.038l-11.669,2.658v49.965   H30v-41.772c0-33.988,73.591-71.858,179.191-71.858c103.69,0,177.499,37.168,179.191,70.633V234.986z"/>
	<path d="M209.191,258.865c-45.164,0-81.908,36.744-81.908,81.908s36.744,81.908,81.908,81.908s81.908-36.744,81.908-81.908   S254.355,258.865,209.191,258.865z M209.191,392.681c-28.622,0-51.908-23.286-51.908-51.908s23.286-51.908,51.908-51.908   s51.908,23.286,51.908,51.908S237.813,392.681,209.191,392.681z"/>
</g>















</svg>
