<svg id="Слой_2" data-name="Слой 2" xmlns="http://www.w3.org/2000/svg" viewBox="0 0 32.75 32.92"><defs><style>.cls-1,.cls-2{fill:#a6a6a6;}.cls-1{fill-rule:evenodd;}</style></defs><title>vk</title><path class="cls-1" d="M6.47,11.84H8.73c.84,0,.83.14,1.08.58.93,1.61,2.22,4,3.2,3.82V13.09c0-1.23-.82-.68-.86-1.12,0-.23.39-.6,1.15-.6h2.62c.67,0,.74.37.74.75,0,1.41,0,2.72,0,4.13,1.33-.12,2.31-2.11,3.12-3.66.45-.85.52-.75,1.19-.75h2.52c.57,0,.69.23.33.8-.8,1.28-1.67,2.67-2.52,4-.27.42-.45.48.05,1.07,1,1.13,2,2.1,2.9,3.24.21.26.14.63-.46.63H20.55c-.43,0-.59,0-1.11-.56a4.56,4.56,0,0,0-2.69-1.82V21c0,.34-.14.58-.66.58H14c-3,0-6.39-6-7.89-9C5.79,12,6.06,11.84,6.47,11.84Z"/><path class="cls-2" d="M32.14,32.31H.43V4.5A3.9,3.9,0,0,1,4.32.6H32.14ZM1.37,31.37H31.19V1.55H4.32a3,3,0,0,0-3,3Z"/></svg>